<svg width="1024" height="512" viewBox="0 0 1024 512" fill="none" xmlns="http://www.w3.org/2000/svg">
<path d="M798.714 233.814C778.933 233.814 770.032 249.886 770.032 268.677V325.546H734.922V264.474C734.922 228.869 755.939 199.693 798.714 199.693C841.489 199.693 863 228.622 863 264.474V325.546H827.89V268.677C827.89 249.886 818.741 233.814 798.714 233.814Z" fill="#050505"/>
<path d="M646.091 385.382C616.915 385.382 595.651 373.019 584.525 350.272L613.454 334.448C618.893 345.08 629.773 353.239 645.597 353.239C666.614 353.239 678.729 337.909 678.729 315.162V311.7C672.053 321.59 661.174 327.03 646.091 327.03C606.283 327.03 588.975 301.563 588.975 265.216V203.155H623.591V263.98C623.591 281.782 633.234 293.898 650.542 293.898C666.366 293.898 678.234 280.793 678.234 263.238V203.155H713.839V314.667C713.839 357.442 686.394 385.382 646.091 385.382Z" fill="#050505"/>
<path d="M419.78 329.008C406.181 329.008 392.335 320.602 388.132 303.047L364.643 203.156H397.527L418.791 296.371C418.791 296.865 418.544 296.865 419.533 296.865C420.275 296.865 420.028 296.618 420.028 296.618L438.077 225.656C442.775 208.101 452.913 199.447 467.995 199.447C483.325 199.447 493.215 208.101 497.418 225.161L515.468 296.618C515.468 296.865 515.468 297.112 516.21 297.112C516.952 297.112 516.952 296.865 516.952 296.371L537.474 203.156H569.864L547.364 303.047C543.408 320.849 529.314 329.008 515.963 329.008C501.622 329.008 490.99 320.354 486.539 303.047L468.242 230.106C468.242 230.106 468.49 229.859 467.748 229.859C467.253 229.859 467.501 230.106 467.501 230.106L449.204 303.047C445 320.354 434.121 329.008 419.78 329.008Z" fill="#050505"/>
<path d="M324.597 329.007C289.24 329.007 271.685 307.743 271.685 277.083V232.825H249.185V203.154H271.685V172H306.795V203.154H350.065V232.825H306.795V276.094C306.795 289.693 314.954 297.605 327.812 297.605C334.982 297.605 344.13 295.38 350.065 291.671V323.073C343.883 327.029 333.251 329.007 324.597 329.007Z" fill="#050505"/>
<path d="M174.843 311.743C171.89 304.853 170.906 290.455 170.906 290.455L259.428 290.072C259.428 290.072 260.578 301.892 265.5 310.786C270.421 319.68 275.343 323.493 275.343 323.493C275.343 323.493 198.353 323.733 190.479 323.733C182.604 323.732 177.796 318.633 174.843 311.743Z" fill="#050505"/>
<path d="M165.1 269.459C162.022 263.554 161 246.821 161 246.821L259 246.711L258.993 279.723C258.993 279.723 188.7 279.734 180.49 279.735C172.281 279.736 168.177 275.365 165.1 269.459Z" fill="#050505"/>
</svg>
