<svg width="200" height="200" viewBox="0 0 200 200" fill="none" xmlns="http://www.w3.org/2000/svg">
<rect width="200" height="200" rx="99" fill="black"/>
<path d="M131.78 95.1064C131.203 94.8298 130.617 94.5635 130.023 94.3086C128.989 75.2506 118.575 64.3399 101.089 64.2283C101.01 64.2278 100.931 64.2278 100.852 64.2278C90.3935 64.2278 81.6952 68.6921 76.3414 76.8157L85.958 83.4125C89.9574 77.3444 96.2342 76.0509 100.857 76.0509C100.91 76.0509 100.964 76.0509 101.017 76.0513C106.774 76.0881 111.119 77.762 113.93 81.0264C115.977 83.4031 117.345 86.6872 118.023 90.832C112.918 89.9644 107.398 89.6977 101.496 90.0361C84.8718 90.9937 74.1842 100.689 74.902 114.162C75.2662 120.996 78.6708 126.875 84.4881 130.716C89.4066 133.963 95.7414 135.55 102.325 135.191C111.019 134.714 117.84 131.397 122.599 125.332C126.212 120.725 128.498 114.756 129.507 107.235C133.651 109.735 136.722 113.026 138.418 116.982C141.301 123.706 141.47 134.756 132.453 143.765C124.553 151.657 115.058 155.071 100.707 155.177C84.7877 155.059 72.7484 149.953 64.9207 140.002C57.5908 130.685 53.8026 117.226 53.6613 100C53.8026 82.7739 57.5908 69.3151 64.9207 59.9973C72.7484 50.0465 84.7875 44.9414 100.706 44.8231C116.741 44.9423 128.99 50.072 137.117 60.0708C141.102 64.9741 144.107 71.1403 146.088 78.3299L157.357 75.3232C154.956 66.4736 151.178 58.8478 146.037 52.5235C135.618 39.7047 120.38 33.1362 100.746 33H100.667C81.073 33.1357 66.0053 39.7292 55.8828 52.597C46.8753 64.0478 42.2289 79.9808 42.0728 99.9529L42.0723 100L42.0728 100.047C42.2289 120.019 46.8753 135.952 55.8828 147.403C66.0053 160.271 81.073 166.865 100.667 167H100.746C118.166 166.879 130.445 162.318 140.561 152.212C153.795 138.99 153.397 122.416 149.035 112.242C145.906 104.946 139.939 99.0203 131.78 95.1064ZM101.703 123.385C94.4164 123.795 86.8467 120.525 86.4734 113.52C86.1968 108.326 90.1697 102.531 102.15 101.84C103.522 101.761 104.868 101.722 106.191 101.722C110.542 101.722 114.613 102.145 118.314 102.954C116.934 120.194 108.836 122.994 101.703 123.385Z" fill="white"/>
</svg>
