<svg width="702" height="214" viewBox="0 0 702 214" fill="none" xmlns="http://www.w3.org/2000/svg">
<path d="M637.714 61.8145C617.933 61.8145 609.032 77.8861 609.032 96.6774V153.546H573.922V92.4741C573.922 56.8694 594.939 27.6934 637.714 27.6934C680.489 27.6934 702 56.6222 702 92.4741V153.546H666.89V96.6774C666.89 77.8861 657.741 61.8145 637.714 61.8145Z" fill="white"/>
<path d="M485.09 213.382C455.914 213.382 434.65 201.019 423.523 178.272L452.452 162.448C457.892 173.08 468.771 181.239 484.595 181.239C505.612 181.239 517.728 165.909 517.728 143.162V139.7C511.052 149.59 500.172 155.03 485.09 155.03C445.282 155.03 427.974 129.563 427.974 93.2162V31.1553H462.59V91.98C462.59 109.782 472.233 121.898 489.54 121.898C505.365 121.898 517.233 108.793 517.233 91.2382V31.1553H552.838V142.667C552.838 185.442 525.392 213.382 485.09 213.382Z" fill="white"/>
<path d="M258.78 157.009C245.181 157.009 231.335 148.602 227.132 131.047L203.643 31.1561H236.527L257.791 124.371C257.791 124.866 257.544 124.866 258.533 124.866C259.275 124.866 259.028 124.618 259.028 124.618L277.077 53.6563C281.775 36.1012 291.913 27.4473 306.995 27.4473C322.325 27.4473 332.215 36.1012 336.418 53.1618L354.468 124.618C354.468 124.866 354.468 125.113 355.21 125.113C355.952 125.113 355.952 124.866 355.952 124.371L376.474 31.1561H408.864L386.364 131.047C382.408 148.849 368.314 157.009 354.963 157.009C340.622 157.009 329.99 148.355 325.539 131.047L307.242 58.1069C307.242 58.1069 307.49 57.8596 306.748 57.8596C306.253 57.8596 306.501 58.1069 306.501 58.1069L288.204 131.047C284 148.355 273.121 157.009 258.78 157.009Z" fill="white"/>
<path d="M163.596 157.007C128.239 157.007 110.684 135.743 110.684 105.083V60.8247H88.1836V31.1541H110.684V0H145.794V31.1541H189.064V60.8247H145.794V104.094C145.794 117.693 153.953 125.605 166.811 125.605C173.981 125.605 183.129 123.38 189.064 119.671V151.073C182.882 155.029 172.25 157.007 163.596 157.007Z" fill="white"/>
<path d="M13.8419 139.743C10.889 132.853 9.90472 118.455 9.90472 118.455L98.4271 118.072C98.4271 118.072 99.5774 129.892 104.499 138.786C109.42 147.68 114.342 151.493 114.342 151.493C114.342 151.493 37.3521 151.733 29.4777 151.733C21.6034 151.732 16.7948 146.633 13.8419 139.743Z" fill="white"/>
<path d="M4.09781 97.4595C1.0205 91.5542 -0.00218924 74.8213 -0.00218924 74.8213L97.9984 74.7113L97.9915 107.723C97.9915 107.723 27.6978 107.734 19.4884 107.735C11.2789 107.736 7.17511 103.365 4.09781 97.4595Z" fill="white"/>
</svg>
